<svg width="252" height="252" viewBox="0 0 252 252" fill="none" xmlns="http://www.w3.org/2000/svg">
<rect width="252" height="252" rx="30" fill="#F4EFE4"/>
<path d="M38.4432 210.091H46.1818L56.5455 235.386H56.9545L67.3182 210.091H75.0568V245H68.9886V221.017H68.6648L59.017 244.898H54.483L44.8352 220.966H44.5114V245H38.4432V210.091ZM93.0909 245.511C90.5341 245.511 88.3182 244.949 86.4432 243.824C84.5682 242.699 83.1136 241.125 82.0795 239.102C81.0568 237.08 80.5455 234.716 80.5455 232.011C80.5455 229.307 81.0568 226.937 82.0795 224.903C83.1136 222.869 84.5682 221.29 86.4432 220.165C88.3182 219.04 90.5341 218.477 93.0909 218.477C95.6477 218.477 97.8636 219.04 99.7386 220.165C101.614 221.29 103.063 222.869 104.085 224.903C105.119 226.937 105.636 229.307 105.636 232.011C105.636 234.716 105.119 237.08 104.085 239.102C103.063 241.125 101.614 242.699 99.7386 243.824C97.8636 244.949 95.6477 245.511 93.0909 245.511ZM93.125 240.568C94.5114 240.568 95.6705 240.187 96.6023 239.426C97.5341 238.653 98.2273 237.619 98.6818 236.324C99.1477 235.028 99.3807 233.585 99.3807 231.994C99.3807 230.392 99.1477 228.943 98.6818 227.648C98.2273 226.341 97.5341 225.301 96.6023 224.528C95.6705 223.756 94.5114 223.369 93.125 223.369C91.7045 223.369 90.5227 223.756 89.5795 224.528C88.6477 225.301 87.9489 226.341 87.483 227.648C87.0284 228.943 86.8011 230.392 86.8011 231.994C86.8011 233.585 87.0284 235.028 87.483 236.324C87.9489 237.619 88.6477 238.653 89.5795 239.426C90.5227 240.187 91.7045 240.568 93.125 240.568ZM131.567 225.739L125.942 226.352C125.783 225.784 125.504 225.25 125.107 224.75C124.72 224.25 124.197 223.847 123.538 223.54C122.879 223.233 122.072 223.08 121.118 223.08C119.834 223.08 118.754 223.358 117.879 223.915C117.016 224.472 116.589 225.193 116.601 226.08C116.589 226.841 116.868 227.46 117.436 227.938C118.016 228.415 118.97 228.807 120.3 229.114L124.766 230.068C127.243 230.602 129.084 231.449 130.288 232.608C131.504 233.767 132.118 235.284 132.129 237.159C132.118 238.807 131.635 240.261 130.68 241.523C129.737 242.773 128.425 243.75 126.743 244.455C125.061 245.159 123.129 245.511 120.947 245.511C117.743 245.511 115.163 244.841 113.209 243.5C111.254 242.148 110.089 240.267 109.714 237.858L115.732 237.278C116.004 238.46 116.584 239.352 117.47 239.955C118.357 240.557 119.51 240.858 120.93 240.858C122.396 240.858 123.572 240.557 124.459 239.955C125.357 239.352 125.805 238.608 125.805 237.722C125.805 236.972 125.516 236.352 124.936 235.864C124.368 235.375 123.482 235 122.277 234.739L117.811 233.801C115.3 233.278 113.442 232.398 112.237 231.159C111.033 229.909 110.436 228.33 110.447 226.42C110.436 224.807 110.874 223.409 111.76 222.227C112.658 221.034 113.902 220.114 115.493 219.466C117.095 218.807 118.942 218.477 121.033 218.477C124.101 218.477 126.516 219.131 128.277 220.438C130.05 221.744 131.146 223.511 131.567 225.739ZM137.217 245V218.818H143.388V245H137.217ZM140.32 215.102C139.342 215.102 138.501 214.778 137.797 214.131C137.092 213.472 136.74 212.682 136.74 211.761C136.74 210.83 137.092 210.04 137.797 209.392C138.501 208.733 139.342 208.403 140.32 208.403C141.308 208.403 142.149 208.733 142.842 209.392C143.547 210.04 143.899 210.83 143.899 211.761C143.899 212.682 143.547 213.472 142.842 214.131C142.149 214.778 141.308 215.102 140.32 215.102ZM162.994 218.818V223.591H147.517V218.818H162.994ZM151.386 245V216.347C151.386 214.585 151.75 213.119 152.477 211.949C153.216 210.778 154.205 209.903 155.443 209.324C156.682 208.744 158.057 208.455 159.568 208.455C160.636 208.455 161.585 208.54 162.415 208.71C163.244 208.881 163.858 209.034 164.256 209.17L163.028 213.943C162.767 213.864 162.438 213.784 162.04 213.705C161.642 213.614 161.199 213.568 160.71 213.568C159.562 213.568 158.75 213.847 158.273 214.403C157.807 214.949 157.574 215.733 157.574 216.756V245H151.386ZM167.827 245V218.818H173.81V223.182H174.082C174.56 221.67 175.378 220.506 176.537 219.688C177.707 218.858 179.043 218.443 180.543 218.443C180.884 218.443 181.264 218.46 181.685 218.494C182.116 218.517 182.474 218.557 182.759 218.614V224.29C182.497 224.199 182.082 224.119 181.514 224.051C180.957 223.972 180.418 223.932 179.895 223.932C178.77 223.932 177.759 224.176 176.861 224.665C175.974 225.142 175.276 225.807 174.764 226.659C174.253 227.511 173.997 228.494 173.997 229.608V245H167.827ZM193.923 245.528C192.264 245.528 190.77 245.233 189.44 244.642C188.122 244.04 187.077 243.153 186.304 241.983C185.543 240.812 185.162 239.369 185.162 237.653C185.162 236.176 185.435 234.955 185.98 233.989C186.526 233.023 187.27 232.25 188.213 231.67C189.156 231.091 190.219 230.653 191.401 230.358C192.594 230.051 193.827 229.83 195.099 229.693C196.634 229.534 197.878 229.392 198.832 229.267C199.787 229.131 200.48 228.926 200.912 228.653C201.355 228.369 201.577 227.932 201.577 227.341V227.239C201.577 225.955 201.196 224.96 200.435 224.256C199.673 223.551 198.577 223.199 197.145 223.199C195.634 223.199 194.435 223.528 193.548 224.188C192.673 224.847 192.082 225.625 191.776 226.523L186.014 225.705C186.469 224.114 187.219 222.784 188.264 221.716C189.31 220.636 190.588 219.83 192.099 219.295C193.611 218.75 195.281 218.477 197.111 218.477C198.372 218.477 199.628 218.625 200.878 218.92C202.128 219.216 203.27 219.705 204.304 220.386C205.338 221.057 206.168 221.972 206.793 223.131C207.429 224.29 207.747 225.739 207.747 227.477V245H201.815V241.403H201.611C201.236 242.131 200.707 242.812 200.026 243.449C199.355 244.074 198.509 244.58 197.486 244.966C196.474 245.341 195.287 245.528 193.923 245.528ZM195.526 240.994C196.764 240.994 197.838 240.75 198.747 240.261C199.656 239.761 200.355 239.102 200.844 238.284C201.344 237.466 201.594 236.574 201.594 235.608V232.523C201.401 232.682 201.071 232.83 200.605 232.966C200.151 233.102 199.639 233.222 199.071 233.324C198.503 233.426 197.94 233.517 197.384 233.597C196.827 233.676 196.344 233.744 195.935 233.801C195.014 233.926 194.19 234.131 193.463 234.415C192.736 234.699 192.162 235.097 191.741 235.608C191.321 236.108 191.111 236.756 191.111 237.551C191.111 238.688 191.526 239.545 192.355 240.125C193.185 240.705 194.241 240.994 195.526 240.994Z" fill="black"/>
<circle cx="125.5" cy="102.5" r="69" fill="#F4EFE4" stroke="black" stroke-width="19"/>
<path d="M47 90H204V187H47V90Z" fill="#F4EFE4"/>
<path d="M184 90L203 90L204 169H185L184 90Z" fill="black"/>
<rect x="47" y="89" width="19" height="79" fill="black"/>
</svg>
