<svg width="252" height="254" viewBox="0 0 252 254" fill="none" xmlns="http://www.w3.org/2000/svg">
<rect width="252" height="252" rx="30" fill="#F4EFE4"/>
<path d="M54.1903 164.396C54.1903 164.396 46.4492 76 70.4492 74.5C94.4492 73 126.208 90.5 126.208 165.5" stroke="#B95454" stroke-width="20"/>
<circle cx="125.949" cy="56.5" r="17.5" fill="#B95454"/>
<path d="M41.4432 176.091H49.1818L59.5455 201.386H59.9545L70.3182 176.091H78.0568V211H71.9886V187.017H71.6648L62.017 210.898H57.483L47.8352 186.966H47.5114V211H41.4432V176.091ZM96.0909 211.511C93.5341 211.511 91.3182 210.949 89.4432 209.824C87.5682 208.699 86.1136 207.125 85.0795 205.102C84.0568 203.08 83.5455 200.716 83.5455 198.011C83.5455 195.307 84.0568 192.937 85.0795 190.903C86.1136 188.869 87.5682 187.29 89.4432 186.165C91.3182 185.04 93.5341 184.477 96.0909 184.477C98.6477 184.477 100.864 185.04 102.739 186.165C104.614 187.29 106.063 188.869 107.085 190.903C108.119 192.937 108.636 195.307 108.636 198.011C108.636 200.716 108.119 203.08 107.085 205.102C106.063 207.125 104.614 208.699 102.739 209.824C100.864 210.949 98.6477 211.511 96.0909 211.511ZM96.125 206.568C97.5114 206.568 98.6705 206.187 99.6023 205.426C100.534 204.653 101.227 203.619 101.682 202.324C102.148 201.028 102.381 199.585 102.381 197.994C102.381 196.392 102.148 194.943 101.682 193.648C101.227 192.341 100.534 191.301 99.6023 190.528C98.6705 189.756 97.5114 189.369 96.125 189.369C94.7045 189.369 93.5227 189.756 92.5795 190.528C91.6477 191.301 90.9489 192.341 90.483 193.648C90.0284 194.943 89.8011 196.392 89.8011 197.994C89.8011 199.585 90.0284 201.028 90.483 202.324C90.9489 203.619 91.6477 204.653 92.5795 205.426C93.5227 206.187 94.7045 206.568 96.125 206.568ZM134.567 191.739L128.942 192.352C128.783 191.784 128.504 191.25 128.107 190.75C127.72 190.25 127.197 189.847 126.538 189.54C125.879 189.233 125.072 189.08 124.118 189.08C122.834 189.08 121.754 189.358 120.879 189.915C120.016 190.472 119.589 191.193 119.601 192.08C119.589 192.841 119.868 193.46 120.436 193.938C121.016 194.415 121.97 194.807 123.3 195.114L127.766 196.068C130.243 196.602 132.084 197.449 133.288 198.608C134.504 199.767 135.118 201.284 135.129 203.159C135.118 204.807 134.635 206.261 133.68 207.523C132.737 208.773 131.425 209.75 129.743 210.455C128.061 211.159 126.129 211.511 123.947 211.511C120.743 211.511 118.163 210.841 116.209 209.5C114.254 208.148 113.089 206.267 112.714 203.858L118.732 203.278C119.004 204.46 119.584 205.352 120.47 205.955C121.357 206.557 122.51 206.858 123.93 206.858C125.396 206.858 126.572 206.557 127.459 205.955C128.357 205.352 128.805 204.608 128.805 203.722C128.805 202.972 128.516 202.352 127.936 201.864C127.368 201.375 126.482 201 125.277 200.739L120.811 199.801C118.3 199.278 116.442 198.398 115.237 197.159C114.033 195.909 113.436 194.33 113.447 192.42C113.436 190.807 113.874 189.409 114.76 188.227C115.658 187.034 116.902 186.114 118.493 185.466C120.095 184.807 121.942 184.477 124.033 184.477C127.101 184.477 129.516 185.131 131.277 186.438C133.05 187.744 134.146 189.511 134.567 191.739ZM140.217 211V184.818H146.388V211H140.217ZM143.32 181.102C142.342 181.102 141.501 180.778 140.797 180.131C140.092 179.472 139.74 178.682 139.74 177.761C139.74 176.83 140.092 176.04 140.797 175.392C141.501 174.733 142.342 174.403 143.32 174.403C144.308 174.403 145.149 174.733 145.842 175.392C146.547 176.04 146.899 176.83 146.899 177.761C146.899 178.682 146.547 179.472 145.842 180.131C145.149 180.778 144.308 181.102 143.32 181.102ZM165.994 184.818V189.591H150.517V184.818H165.994ZM154.386 211V182.347C154.386 180.585 154.75 179.119 155.477 177.949C156.216 176.778 157.205 175.903 158.443 175.324C159.682 174.744 161.057 174.455 162.568 174.455C163.636 174.455 164.585 174.54 165.415 174.71C166.244 174.881 166.858 175.034 167.256 175.17L166.028 179.943C165.767 179.864 165.438 179.784 165.04 179.705C164.642 179.614 164.199 179.568 163.71 179.568C162.562 179.568 161.75 179.847 161.273 180.403C160.807 180.949 160.574 181.733 160.574 182.756V211H154.386ZM170.827 211V184.818H176.81V189.182H177.082C177.56 187.67 178.378 186.506 179.537 185.688C180.707 184.858 182.043 184.443 183.543 184.443C183.884 184.443 184.264 184.46 184.685 184.494C185.116 184.517 185.474 184.557 185.759 184.614V190.29C185.497 190.199 185.082 190.119 184.514 190.051C183.957 189.972 183.418 189.932 182.895 189.932C181.77 189.932 180.759 190.176 179.861 190.665C178.974 191.142 178.276 191.807 177.764 192.659C177.253 193.511 176.997 194.494 176.997 195.608V211H170.827ZM196.923 211.528C195.264 211.528 193.77 211.233 192.44 210.642C191.122 210.04 190.077 209.153 189.304 207.983C188.543 206.812 188.162 205.369 188.162 203.653C188.162 202.176 188.435 200.955 188.98 199.989C189.526 199.023 190.27 198.25 191.213 197.67C192.156 197.091 193.219 196.653 194.401 196.358C195.594 196.051 196.827 195.83 198.099 195.693C199.634 195.534 200.878 195.392 201.832 195.267C202.787 195.131 203.48 194.926 203.912 194.653C204.355 194.369 204.577 193.932 204.577 193.341V193.239C204.577 191.955 204.196 190.96 203.435 190.256C202.673 189.551 201.577 189.199 200.145 189.199C198.634 189.199 197.435 189.528 196.548 190.188C195.673 190.847 195.082 191.625 194.776 192.523L189.014 191.705C189.469 190.114 190.219 188.784 191.264 187.716C192.31 186.636 193.588 185.83 195.099 185.295C196.611 184.75 198.281 184.477 200.111 184.477C201.372 184.477 202.628 184.625 203.878 184.92C205.128 185.216 206.27 185.705 207.304 186.386C208.338 187.057 209.168 187.972 209.793 189.131C210.429 190.29 210.747 191.739 210.747 193.477V211H204.815V207.403H204.611C204.236 208.131 203.707 208.812 203.026 209.449C202.355 210.074 201.509 210.58 200.486 210.966C199.474 211.341 198.287 211.528 196.923 211.528ZM198.526 206.994C199.764 206.994 200.838 206.75 201.747 206.261C202.656 205.761 203.355 205.102 203.844 204.284C204.344 203.466 204.594 202.574 204.594 201.608V198.523C204.401 198.682 204.071 198.83 203.605 198.966C203.151 199.102 202.639 199.222 202.071 199.324C201.503 199.426 200.94 199.517 200.384 199.597C199.827 199.676 199.344 199.744 198.935 199.801C198.014 199.926 197.19 200.131 196.463 200.415C195.736 200.699 195.162 201.097 194.741 201.608C194.321 202.108 194.111 202.756 194.111 203.551C194.111 204.688 194.526 205.545 195.355 206.125C196.185 206.705 197.241 206.994 198.526 206.994Z" fill="#B95454"/>
<path d="M53.5 164.5C53.5 164.5 47.5 77.5 70.4492 74.5C93.3984 71.5 126.208 90.5 126.208 165.5" stroke="#B95454" stroke-width="20"/>
<rect x="63" y="129" width="15" height="38" fill="#F4EFE4"/>
<rect width="23" height="2" transform="matrix(-1 0 0 1 63 165)" fill="#F4EFE4"/>
<rect x="45" y="161" width="18" height="4" fill="#B95454"/>
<path d="M198.708 164.297C198.708 164.297 204.708 77.2968 181.759 74.2968C158.81 71.2968 126 90.2968 126 165.297" stroke="#B95454" stroke-width="20"/>
<rect width="15" height="38" transform="matrix(-1 0 0 1 189.208 128.797)" fill="#F4EFE4"/>
<rect x="189.208" y="164.797" width="23" height="2" fill="#F4EFE4"/>
<rect width="18" height="4" transform="matrix(-1 0 0 1 207.208 160.797)" fill="#B95454"/>
</svg>
